<svg xmlns="http://www.w3.org/2000/svg" viewBox="0 0 40 20" width="40" height="20"><rect width="40" height="20" fill="none"/><g fill="none" stroke="#ffffff" stroke-width=".25"><ellipse cx="20" cy="10" rx="18" ry="6"/><ellipse cx="20" cy="10" rx="14" ry="4"/></g><g fill="#ffffff"><circle cx="38" cy="10" r="1.0"/><circle cx="37.324194256165654" cy="11.628642699190445" r="0.6"/><circle cx="34.966453021445815" cy="13.333421398117613" r="1.3"/><circle cx="32.21841341959295" cy="14.405935056614114" r="1.4"/><circle cx="28.17182899531184" cy="15.346039145130206" r="1.0"/><circle cx="23.51162579629031" cy="15.884711682419383" r="1.4"/><circle cx="17.884326845758924" cy="15.958410741729558" r="1.1"/><circle cx="12.4641247243263" cy="15.448859042950488" r="0.6"/><circle cx="7.781586580407046" cy="14.405935056614112" r="1.1"/><circle cx="4.652477041626341" cy="13.134991388295694" r="0.8"/><circle cx="2.6758057438343528" cy="11.628642699190447" r="0.8"/><circle cx="2" cy="10" r="0.9"/><circle cx="2.880982706687238" cy="8.145898033750314" r="0.6"/><circle cx="5.437694101250946" cy="6.473288486245162" r="0.7"/><circle cx="9.99973580564716" cy="5.011182326184729" r="0.5"/><circle cx="16.488374203709682" cy="4.115288317580618" r="0.9"/></g></svg>
