<svg xmlns="http://www.w3.org/2000/svg" viewBox="0 0 60 60" width="60" height="60"><rect width="60" height="60" fill="none"/><g fill="none" stroke="#ffffff" stroke-width="0.7"><path d="M0,30h10l5,-10h10l5,15h10l5,-25h10l5,20h5"/><path d="M30,0v10l-10,5v10l15,5v10l-25,5v10l10,5v5"/><circle cx="10" cy="30" r="2"/><circle cx="30" cy="10" r="2"/><circle cx="50" cy="30" r="2"/><circle cx="30" cy="50" r="2"/><circle cx="25" cy="20" r="1.5"/><circle cx="35" cy="40" r="1.5"/><circle cx="15" cy="45" r="1.5"/><circle cx="45" cy="15" r="1.5"/></g><g fill="#ffffff"><rect x="8" y="28" width="4" height="4" rx="2"/><rect x="28" y="8" width="4" height="4" rx="2"/><rect x="48" y="28" width="4" height="4" rx="2"/><rect x="28" y="48" width="4" height="4" rx="2"/></g></svg>
