<svg xmlns="http://www.w3.org/2000/svg" viewBox="0 0 60 60" width="60" height="60">
  <rect width="60" height="60" fill="none"/>
  <g fill="none" stroke="#ffffff" stroke-width="0.6">
    <line x1="0" y1="15" x2="60" y2="15"/>
    <line x1="0" y1="30" x2="60" y2="30"/>
    <line x1="0" y1="45" x2="60" y2="45"/>
    <line x1="15" y1="0" x2="15" y2="60"/>
    <line x1="30" y1="0" x2="30" y2="60"/>
    <line x1="45" y1="0" x2="45" y2="60"/>
    <line x1="0" y1="0" x2="60" y2="60"/>
    <line x1="60" y1="0" x2="0" y2="60"/>
  </g>
  <g fill="#ffffff">
    <circle cx="15" cy="15" r="1.5"/>
    <circle cx="30" cy="15" r="1.5"/>
    <circle cx="45" cy="15" r="1.5"/>
    <circle cx="15" cy="30" r="1.5"/>
    <circle cx="30" cy="30" r="1.5"/>
    <circle cx="45" cy="30" r="1.5"/>
    <circle cx="15" cy="45" r="1.5"/>
    <circle cx="30" cy="45" r="1.5"/>
    <circle cx="45" cy="45" r="1.5"/>
  </g>
</svg>
