<svg xmlns="http://www.w3.org/2000/svg" viewBox="0 0 48 48" width="48" height="48"><rect width="48" height="48" fill="none"/><g fill="none" stroke="#ffffff" stroke-width=".6"><path d="M0,0 L16,0 L16,16 L0,16 Z"/><path d="M16,16 L32,16 L32,32 L16,32 Z"/><path d="M32,32 L48,32 L48,48 L32,48 Z"/><path d="M0,16 L8,16 L8,24 L0,24 Z"/><path d="M16,32 L24,32 L24,40 L16,40 Z"/><path d="M32,0 L40,0 L40,8 L32,8 Z"/><path d="M24,8 L32,8 L32,16 L24,16 Z"/><path d="M8,24 L16,24 L16,32 L8,32 Z"/><path d="M40,16 L48,16 L48,24 L40,24 Z"/></g></svg>
