<svg xmlns="http://www.w3.org/2000/svg" viewBox="0 0 40 40" width="40" height="40"><rect width="40" height="40" fill="none"/><g fill="none" stroke="#ffffff" stroke-width=".35"><circle cx="20" cy="20" r="14"/><circle cx="8" cy="12" r="5"/><circle cx="32" cy="12" r="5"/><circle cx="8" cy="28" r="5"/><circle cx="32" cy="28" r="5"/><circle cx="20" cy="6" r="5"/><circle cx="20" cy="34" r="5"/><line x1="8" y1="12" x2="32" y2="12"/><line x1="8" y1="28" x2="32" y2="28"/><line x1="8" y1="12" x2="8" y2="28"/><line x1="32" y1="12" x2="32" y2="28"/><line x1="20" y1="6" x2="20" y2="34"/><line x1="8" y1="12" x2="20" y2="6"/><line x1="32" y1="12" x2="20" y2="6"/><line x1="8" y1="28" x2="20" y2="34"/><line x1="32" y1="28" x2="20" y2="34"/></g></svg>
