<svg xmlns="http://www.w3.org/2000/svg" viewBox="0 0 30 30" width="30" height="30"><rect width="30" height="30" fill="none"/><g fill="none" stroke="#ffffff" stroke-width=".35"><circle cx="15" cy="15" r="13"/><circle cx="15" cy="15" r="10"/><circle cx="15" cy="15" r="2"/><path d="M17,15 L28,15"/><path d="M16.73205080756888,16 L26.258330249197705,21.5"/><path d="M16,16.73205080756888 L21.5,26.2583302491977"/><path d="M15,17 L15,28"/><path d="M14,16.73205080756888 L8.500000000000004,26.258330249197705"/><path d="M13.267949192431123,16 L3.7416697508022967,21.5"/><path d="M13,15 L2,15.000000000000002"/><path d="M13.267949192431123,14 L3.7416697508022985,8.499999999999998"/><path d="M14,13.267949192431123 L8.499999999999995,3.7416697508023002"/><path d="M15,13 L14.999999999999998,2"/><path d="M16,13.267949192431123 L21.5,3.7416697508022985"/><path d="M16.732050807568875,14 L26.258330249197698,8.499999999999995"/></g></svg>
