<svg xmlns="http://www.w3.org/2000/svg" viewBox="0 0 80 80" width="80" height="80"><rect width="80" height="80" fill="none"/><g fill="none" stroke="#ffffff" stroke-width=".5"><line x1="0" y1="4" x2="80" y2="4"/><line x1="0" y1="8" x2="80" y2="8"/><line x1="0" y1="12" x2="80" y2="12"/><line x1="0" y1="16" x2="80" y2="16"/><line x1="0" y1="20" x2="80" y2="20"/><line x1="0" y1="24" x2="80" y2="24"/><line x1="0" y1="28" x2="80" y2="28"/><line x1="0" y1="32" x2="80" y2="32"/><line x1="0" y1="36" x2="80" y2="36"/><line x1="0" y1="40" x2="80" y2="40"/><line x1="0" y1="44" x2="80" y2="44"/><line x1="0" y1="48" x2="80" y2="48"/><line x1="0" y1="52" x2="80" y2="52"/><line x1="0" y1="56" x2="80" y2="56"/><line x1="0" y1="60" x2="80" y2="60"/><line x1="0" y1="64" x2="80" y2="64"/><line x1="0" y1="68" x2="80" y2="68"/><line x1="0" y1="72" x2="80" y2="72"/><line x1="0" y1="76" x2="80" y2="76"/></g></svg>
