<svg xmlns="http://www.w3.org/2000/svg" viewBox="0 0 30 20" width="30" height="20"><rect width="30" height="20" fill="none"/><g fill="none" stroke="#ffffff"><line x1="2" y1="6" x2="2" y2="14" stroke-width="1.2"/><line x1="4" y1="3.8499999999999996" x2="4" y2="16.15" stroke-width="1.2"/><line x1="6" y1="3" x2="6" y2="17" stroke-width="1.2"/><line x1="8" y1="3.95" x2="8" y2="16.05" stroke-width="1.2"/><line x1="10" y1="6.2" x2="10" y2="13.8" stroke-width="1.2"/><line x1="12" y1="8.25" x2="12" y2="11.75" stroke-width="1.2"/><line x1="14" y1="9" x2="14" y2="11" stroke-width="1.2"/><line x1="16" y1="7.9" x2="16" y2="12.1" stroke-width="1.2"/><line x1="18" y1="5.65" x2="18" y2="14.35" stroke-width="1.2"/><line x1="20" y1="3.5999999999999996" x2="20" y2="16.4" stroke-width="1.2"/><line x1="22" y1="3.05" x2="22" y2="16.95" stroke-width="1.2"/><line x1="24" y1="4.25" x2="24" y2="15.75" stroke-width="1.2"/><line x1="26" y1="6.5" x2="26" y2="13.5" stroke-width="1.2"/><line x1="28" y1="8.5" x2="28" y2="11.5" stroke-width="1.2"/><line x1="30" y1="8.95" x2="30" y2="11.05" stroke-width="1.2"/></g></svg>
