<svg xmlns="http://www.w3.org/2000/svg" viewBox="0 0 30 30" width="30" height="30"><rect width="30" height="30" fill="none"/><g fill="#ffffff"><circle cx="20.5" cy="18.9" r="0.65"/><circle cx="28.4" cy="10.5" r="0.46"/><circle cx="25.3" cy="5.0" r="0.46"/><circle cx="12.2" cy="9.7" r="0.27"/><circle cx="3.5" cy="12.7" r="0.57"/><circle cx="9.7" cy="1.9" r="0.46"/><circle cx="9.6" cy="2.2" r="0.25"/><circle cx="26.4" cy="11.6" r="0.57"/><circle cx="21.7" cy="10.2" r="0.66"/><circle cx="13.7" cy="22.0" r="0.44"/><circle cx="15.2" cy="16.0" r="0.40"/><circle cx="21.4" cy="27.0" r="0.53"/><circle cx="18.8" cy="20.7" r="0.68"/><circle cx="27.7" cy="27.2" r="0.41"/><circle cx="19.0" cy="28.4" r="0.62"/><circle cx="6.1" cy="25.7" r="0.39"/><circle cx="17.7" cy="12.4" r="0.29"/><circle cx="26.9" cy="7.9" r="0.28"/><circle cx="25.0" cy="10.8" r="0.41"/><circle cx="23.4" cy="7.4" r="0.68"/><circle cx="25.4" cy="15.0" r="0.20"/><circle cx="9.8" cy="8.1" r="0.44"/><circle cx="17.5" cy="18.5" r="0.64"/><circle cx="13.6" cy="6.0" r="0.23"/><circle cx="7.9" cy="2.2" r="0.63"/><circle cx="14.1" cy="26.2" r="0.59"/><circle cx="4.9" cy="25.0" r="0.37"/><circle cx="3.1" cy="9.1" r="0.47"/><circle cx="3.7" cy="12.0" r="0.58"/><circle cx="3.6" cy="2.2" r="0.65"/><circle cx="10.6" cy="9.9" r="0.56"/><circle cx="13.2" cy="20.3" r="0.69"/><circle cx="11.7" cy="6.4" r="0.52"/><circle cx="16.0" cy="8.1" r="0.53"/><circle cx="8.6" cy="24.7" r="0.59"/><circle cx="24.9" cy="21.5" r="0.65"/><circle cx="16.2" cy="12.7" r="0.66"/><circle cx="23.4" cy="7.9" r="0.36"/><circle cx="8.1" cy="14.1" r="0.24"/><circle cx="3.8" cy="12.9" r="0.51"/></g></svg>
