<svg xmlns="http://www.w3.org/2000/svg" viewBox="0 0 48 48" width="48" height="48"><rect width="48" height="48" fill="none"/><g fill="none" stroke="#ffffff" stroke-width=".7"><line x1="24" y1="0" x2="24" y2="48"/><line x1="0" y1="24" x2="48" y2="24"/><path d="M24,24 L0,0"/><path d="M24,24 L48,0"/><path d="M24,24 L0,48"/><path d="M24,24 L48,48"/><path d="M24,24 L12,0 M24,24 L36,0 M24,24 L0,12 M24,24 L0,36 M24,24 L48,12 M24,24 L48,36 M24,24 L12,48 M24,24 L36,48"/></g><circle cx="24" cy="24" r="2.5" fill="#ffffff"/></svg>
