<svg xmlns="http://www.w3.org/2000/svg" viewBox="0 0 30 26" width="30" height="26"><rect width="30" height="26" fill="none"/><g fill="none" stroke="#ffffff" stroke-width=".35"><polygon points="15,0 30,13 15,26 0,13"/><polygon points="15,0 0,13 15,13"/><polygon points="15,0 30,13 15,13"/><polygon points="0,13 15,26 15,13"/><polygon points="30,13 15,26 15,13"/><polygon points="7.5,6.5 15,13 7.5,13"/><polygon points="22.5,6.5 15,13 22.5,13"/><polygon points="7.5,19.5 15,13 7.5,13"/><polygon points="22.5,19.5 15,13 22.5,13"/></g></svg>
