<svg xmlns="http://www.w3.org/2000/svg" viewBox="0 0 60 60" width="60" height="60"><rect width="60" height="60" fill="none"/><g fill="none" stroke="#ffffff" stroke-width=".6"><path d="M0,5 L10,0 L20,5 L30,0 L40,5 L50,0 L60,5"/><path d="M0,15 L10,10 L20,15 L30,10 L40,15 L50,10 L60,15"/><path d="M0,25 L10,20 L20,25 L30,20 L40,25 L50,20 L60,25"/><path d="M0,35 L10,30 L20,35 L30,30 L40,35 L50,30 L60,35"/><path d="M0,45 L10,40 L20,45 L30,40 L40,45 L50,40 L60,45"/><path d="M0,55 L10,50 L20,55 L30,50 L40,55 L50,50 L60,55"/></g></svg>
